<svg width="30" height="30" viewBox="0 0 30 30" fill="none" xmlns="http://www.w3.org/2000/svg">
<g clip-path="url(#clip0_23_203)">
<path fill-rule="evenodd" clip-rule="evenodd" d="M15 0C6.71575 0 0 6.71575 0 15C0 23.2843 6.71575 30 15 30C23.2843 30 30 23.2843 30 15C30 6.71575 23.2843 0 15 0ZM21.251 9.84331C21.9394 10.0323 22.4816 10.5889 22.6656 11.2957C23 12.5769 23 15.25 23 15.25C23 15.25 23 17.923 22.6656 19.2043C22.4816 19.9111 21.9394 20.4678 21.251 20.6567C20.0034 21 15 21 15 21C15 21 9.99662 21 8.74894 20.6567C8.06044 20.4678 7.51825 19.9111 7.33425 19.2043C7 17.923 7 15.25 7 15.25C7 15.25 7 12.5769 7.33425 11.2957C7.51825 10.5889 8.06044 10.0323 8.74894 9.84331C9.99662 9.5 15 9.5 15 9.5C15 9.5 20.0034 9.5 21.251 9.84331Z" fill="white"/>
<path d="M13.5 18V13L17.5 15.5001L13.5 18Z" fill="white"/>
</g>
<defs>
<clipPath id="clip0_23_203">
<rect width="30" height="30" fill="white"/>
</clipPath>
</defs>
</svg>
